<svg id="Layer_1" data-name="Layer 1" xmlns="http://www.w3.org/2000/svg" viewBox="0 0 255 90"><defs><style>.cls-1{fill:#0f4d81;}.cls-2{fill:#0e4d81;}.cls-3{isolation:isolate;}</style></defs><g id="Layer_2" data-name="Layer 2"><g id="Layer_1-2" data-name="Layer 1-2"><polygon class="cls-1" points="64.66 67.5 62.64 67.5 62.64 19.99 43.88 2 2.02 2 2.02 67.5 0 67.5 0 0 44.7 0 64.66 19.14 64.66 67.5"/><rect class="cls-2" x="0.66" y="72" width="17" height="17"/><path class="cls-1" d="M18.66,90h-19V71h19Zm-17-2h15V73h-15Z"/><rect class="cls-2" x="23.66" y="72" width="17" height="17"/><path class="cls-1" d="M41.66,90h-19V71h19Zm-17-2h15V73h-15Z"/><path class="cls-1" d="M64.66,90h-19V71h19Zm-17-2h15V73h-15Z"/></g></g><g id="Layer_2-2" data-name="Layer 2"><g id="Layer_3" data-name="Layer 3"><g class="cls-3"><path class="cls-1" d="M75.33,40.54V5.6h9.19c3.61,0,6.42.75,8.42,2.23s3,3.73,3,6.72a8.56,8.56,0,0,1-1.43,5,6.84,6.84,0,0,1-4,2.76l0,.15a8.12,8.12,0,0,1,5.21,2.84,8.36,8.36,0,0,1,2.11,5.62,8.84,8.84,0,0,1-3,7.11A11.7,11.7,0,0,1,87,40.54ZM76.62,22h8.83c3,0,5.31-.7,6.85-1.94a6.78,6.78,0,0,0,2.32-5.59,6.61,6.61,0,0,0-2.56-5.65c-1.7-1.28-4.22-1.91-7.54-1.91h-7.9Zm0,1.3v16H87a10.36,10.36,0,0,0,7-2.18A7.6,7.6,0,0,0,96.46,31,6.83,6.83,0,0,0,93.9,25.4,10.61,10.61,0,0,0,87,23.29Z"/><path class="cls-1" d="M120.46,35.74a10.21,10.21,0,0,1-4,3.82A13.09,13.09,0,0,1,110,41a7.87,7.87,0,0,1-5.69-2,7,7,0,0,1-2.06-5.34,6.53,6.53,0,0,1,3.08-5.47A12.92,12.92,0,0,1,113,26h7.42V22.25a6.37,6.37,0,0,0-2.08-5.05,8.63,8.63,0,0,0-5.84-1.81,8.91,8.91,0,0,0-5.68,1.7,5.36,5.36,0,0,0-2.14,4.4l-1.08,0,0-.12a6,6,0,0,1,2.35-5.12,9.9,9.9,0,0,1,6.6-2.1,10.06,10.06,0,0,1,6.69,2.11,7.49,7.49,0,0,1,2.52,6.09v13a21.12,21.12,0,0,0,.16,2.66,16.46,16.46,0,0,0,.51,2.57H121c-.2-1.14-.34-2-.42-2.56a15.08,15.08,0,0,1-.1-1.83Zm-10.46,4a11.87,11.87,0,0,0,6.53-1.71,9.84,9.84,0,0,0,3.93-4.87V27.36h-7.35a11.94,11.94,0,0,0-6.8,1.86,5.42,5.42,0,0,0-2.77,4.6,5.65,5.65,0,0,0,1.76,4.28A6.57,6.57,0,0,0,110,39.77Zm7-36.23h1.87l0,.12-5.54,6.26h-1.61l0-.12Z"/><path class="cls-1" d="M141.55,15.51l-1.68-.14a7.52,7.52,0,0,0-5.65,2.24,11,11,0,0,0-2.82,5.91v17h-1.3v-26h1.06l.24,4.51V20a9.4,9.4,0,0,1,3.21-4.33,8.75,8.75,0,0,1,5.26-1.54,5.55,5.55,0,0,1,1,.08c.31.06.58.12.8.18Z"/><path class="cls-1" d="M147.83,20a9.84,9.84,0,0,1,3.55-4.33A10,10,0,0,1,157,14.1a7.49,7.49,0,0,1,6.16,2.56q2.1,2.57,2.1,8.09V40.54H164V24.7q0-5.11-1.89-7.21a6.41,6.41,0,0,0-5-2.1,8.26,8.26,0,0,0-6.37,2.42A11.72,11.72,0,0,0,147.83,24V40.54h-1.29V27.24h0V26.4a3.85,3.85,0,0,1,0-.67V3.11h1.29Z"/><path class="cls-1" d="M171.39,27.05a13.66,13.66,0,0,1,3.16-9.33,11.11,11.11,0,0,1,16.41,0,13.71,13.71,0,0,1,3.15,9.33v1A13.77,13.77,0,0,1,191,37.42a11.1,11.1,0,0,1-16.4,0,13.73,13.73,0,0,1-3.17-9.36Zm1.3,1a12.81,12.81,0,0,0,2.73,8.29,9,9,0,0,0,7.37,3.39,8.86,8.86,0,0,0,7.29-3.4,12.77,12.77,0,0,0,2.74-8.28v-1a12.75,12.75,0,0,0-2.76-8.22,9.51,9.51,0,0,0-14.64,0,12.84,12.84,0,0,0-2.73,8.22Z"/><path class="cls-1" d="M201.93,40.54h-1.29V3.11h1.29Z"/></g><g class="cls-3"><path class="cls-1" d="M125.15,76a5.75,5.75,0,0,0-2.46-4.84,31.42,31.42,0,0,0-8.39-3.78,30.81,30.81,0,0,1-8.69-3.81,6.9,6.9,0,0,1-2.8-6,7.58,7.58,0,0,1,3.28-6.37,13.56,13.56,0,0,1,8.31-2.43,12.59,12.59,0,0,1,8.41,2.68,9,9,0,0,1,3.08,7.51l0,.15h-1.1a8.3,8.3,0,0,0-2.88-6.48A10.79,10.79,0,0,0,114.4,50a11.72,11.72,0,0,0-7.51,2.22,6.57,6.57,0,0,0-2.78,5.24,6.08,6.08,0,0,0,2.24,4.91q2.25,1.89,8.36,3.68A34,34,0,0,1,123.56,70a6.75,6.75,0,0,1,2.91,5.93A7.45,7.45,0,0,1,123,82.29a14.42,14.42,0,0,1-8.47,2.4,16.26,16.26,0,0,1-9-2.46q-3.8-2.46-3.67-7.74l.05-.14H103q0,4.74,3.5,6.89a15.1,15.1,0,0,0,8.09,2.15,12.85,12.85,0,0,0,7.58-2.12A6.32,6.32,0,0,0,125.15,76Z"/><path class="cls-1" d="M132.9,82.89h18.47v1.29H131.15V83.13l17.06-23.59H131.89V58.22H150v1.16Z"/><path class="cls-1" d="M172.94,79.38a10.06,10.06,0,0,1-4,3.83,13.1,13.1,0,0,1-6.46,1.48,7.9,7.9,0,0,1-5.69-2,7.07,7.07,0,0,1-2.06-5.34,6.55,6.55,0,0,1,3.08-5.47,13,13,0,0,1,7.72-2.21h7.41V65.9a6.36,6.36,0,0,0-2.07-5.05A8.61,8.61,0,0,0,165,59a8.89,8.89,0,0,0-5.67,1.7,5.37,5.37,0,0,0-2.15,4.39l-1.08,0,0-.12a6,6,0,0,1,2.35-5.13,9.89,9.89,0,0,1,6.59-2.1,10.08,10.08,0,0,1,6.7,2.12A7.48,7.48,0,0,1,174.24,66V79a23.24,23.24,0,0,0,.15,2.67,17.34,17.34,0,0,0,.52,2.56h-1.44q-.32-1.7-.42-2.55a15,15,0,0,1-.11-1.84Zm-10.46,4A11.88,11.88,0,0,0,169,81.71a9.87,9.87,0,0,0,3.92-4.87V71H165.6a11.92,11.92,0,0,0-6.8,1.86,5.42,5.42,0,0,0-2.77,4.6,5.65,5.65,0,0,0,1.76,4.28A6.56,6.56,0,0,0,162.48,83.42Zm7-36.23h1.87l0,.12-5.55,6.26h-1.6l0-.12Z"/><path class="cls-1" d="M183.5,58.22l.17,5.24a9.72,9.72,0,0,1,3.38-4.22,9.17,9.17,0,0,1,5.33-1.5,8.38,8.38,0,0,1,5.39,1.67,9,9,0,0,1,2.91,5.17,10.4,10.4,0,0,1,3.39-5,9.08,9.08,0,0,1,5.77-1.81,7.85,7.85,0,0,1,6.53,2.81q2.24,2.8,2.23,8.83v14.8h-1.32V69.31q0-5.64-2-8A6.74,6.74,0,0,0,209.89,59a7.76,7.76,0,0,0-6.11,2.35,11.71,11.71,0,0,0-2.7,6.09c0,.32,0,.65,0,1s0,.66,0,1V84.18h-1.32V70.89h-.07c0-.3,0-.6,0-.91a8.67,8.67,0,0,1,.06-.89q-.08-5.52-2.07-7.78A6.73,6.73,0,0,0,192.42,59a7.7,7.7,0,0,0-6,2.29,11.59,11.59,0,0,0-2.7,5.94V84.18h-1.32V70.89h-.05c0-.22,0-.44,0-.67s0-.5,0-.84V58.22Z"/><path class="cls-1" d="M228.25,84.18H227V46.76h1.3Z"/><path class="cls-1" d="M253.05,79.38a10.06,10.06,0,0,1-4,3.83,13.1,13.1,0,0,1-6.46,1.48,7.86,7.86,0,0,1-5.68-2,7,7,0,0,1-2.07-5.34,6.55,6.55,0,0,1,3.08-5.47,13,13,0,0,1,7.72-2.21h7.41V65.9A6.36,6.36,0,0,0,251,60.85,8.61,8.61,0,0,0,245.13,59a8.89,8.89,0,0,0-5.67,1.7,5.37,5.37,0,0,0-2.15,4.39l-1.08,0,0-.12a6,6,0,0,1,2.35-5.13,9.89,9.89,0,0,1,6.59-2.1,10.08,10.08,0,0,1,6.7,2.12A7.48,7.48,0,0,1,254.35,66V79a23.24,23.24,0,0,0,.15,2.67,17.34,17.34,0,0,0,.52,2.56h-1.44q-.32-1.7-.42-2.55a15,15,0,0,1-.11-1.84Zm-10.46,4a11.88,11.88,0,0,0,6.54-1.71,9.87,9.87,0,0,0,3.92-4.87V71h-7.34a11.92,11.92,0,0,0-6.8,1.86,5.42,5.42,0,0,0-2.77,4.6,5.65,5.65,0,0,0,1.76,4.28A6.56,6.56,0,0,0,242.59,83.42Z"/></g></g></g></svg>